<svg width="12" height="14" viewBox="0 0 12 14" fill="none" xmlns="http://www.w3.org/2000/svg">
<g clip-path="url(#clip0_283_2)">
<path fill-rule="evenodd" clip-rule="evenodd" d="M0.848469 2.89954C1.89683 1.14843 3.81263 -0.0249023 6.00028 -0.0249023C8.18794 -0.0249023 10.1037 1.14843 11.1521 2.89954C11.6907 3.79915 12.0003 4.85122 12.0003 5.97505C12.0003 6.78082 11.8329 7.56282 11.5538 8.29133C11.3127 8.92064 10.9882 9.51003 10.6163 10.0404C9.61628 11.4662 7.0732 13.8998 6.00028 13.8998C4.92737 13.8998 2.35689 11.3566 1.35688 9.9308C0.55433 8.78648 0.000244141 7.47684 0.000244141 5.97505C0.000244141 4.85122 0.30989 3.79915 0.848469 2.89954Z" fill="white"/>
<path d="M6.00025 11.2627C8.87518 11.2627 11.2058 8.93213 11.2058 6.05724C11.2058 3.18236 8.87518 0.851807 6.00025 0.851807C3.12533 0.851807 0.794739 3.18236 0.794739 6.05724C0.794739 8.93213 3.12533 11.2627 6.00025 11.2627Z" fill="#3D5C74"/>
<path fill-rule="evenodd" clip-rule="evenodd" d="M4.66587 6.33893L4.09539 6.9094L4.69231 7.50631L4.19559 8.00303L2.24929 6.05676L3.31883 4.98723L3.80446 5.47286L3.23165 6.04567L3.81946 6.63347L5.18867 5.26428L5.19194 5.26755L5.71625 4.74325L5.15499 4.182L4.55806 4.77892L4.06134 4.2822L6.00764 2.33592L7.07718 3.40544L6.59153 3.89107L6.01873 3.31827L5.43092 3.90608L5.99217 4.46733L5.99366 4.46584L7.31967 5.79183L7.90472 5.20679L7.3078 4.60988L7.80454 4.11315L9.75083 6.05942L8.68129 7.12894L8.19565 6.64331L8.76846 6.07051L8.18064 5.48271L6.81143 6.8519L6.80996 6.85043L6.26693 7.39345L6.85198 7.97849L7.4489 7.38157L7.94563 7.8783L5.99934 9.82457L4.92979 8.75505L5.41544 8.26941L5.98824 8.84221L6.57605 8.25441L5.20684 6.88521L5.2095 6.88255L4.66587 6.33893Z" fill="white"/>
</g>
<defs>
<clipPath id="clip0_283_2">
<rect width="12" height="14" fill="white"/>
</clipPath>
</defs>
</svg>
